REM DIRINDEX 1\6,1\2\7,1\2\8,1\2\9,1\3\10,1\3\11,1\4\12,1\4\13,1\4\14,1\5\15,1\5\16,1\5\17
REM DIRNAME cjc040,folder01,folder02,folder03,folder04,folder05,folder06,folder07,folder08,folder09,folder10,folder11,folder12,folder13,folder14,folder15,folder16
TITLE ""
FILE "P2Q_t2_0547-0564.mp3" MP3
  TRACK 01 AUDIO
    TITLE "7:cjc040_5471"
    INDEX 01 00:00:00
  TRACK 02 AUDIO
    TITLE "0:"
    INDEX 01 00:01:19
  TRACK 03 AUDIO
    TITLE "8:cjc040_5472"
    INDEX 01 00:01:71
  TRACK 04 AUDIO
    TITLE "0:"
    INDEX 01 00:03:21
  TRACK 05 AUDIO
    TITLE "9:cjc040_5473"
    INDEX 01 00:04:01
  TRACK 06 AUDIO
    TITLE "0:"
    INDEX 01 00:05:36
  TRACK 07 AUDIO
    TITLE "7:cjc040_5474"
    INDEX 01 00:07:25
  TRACK 08 AUDIO
    TITLE "0:"
    INDEX 01 00:08:30
  TRACK 09 AUDIO
    TITLE "8:cjc040_5475"
    INDEX 01 00:09:14
  TRACK 10 AUDIO
    TITLE "0:"
    INDEX 01 00:12:22
  TRACK 11 AUDIO
    TITLE "9:cjc040_5476"
    INDEX 01 00:13:04
  TRACK 12 AUDIO
    TITLE "0:"
    INDEX 01 00:14:13
  TRACK 13 AUDIO
    TITLE "7:cjc040_5477"
    INDEX 01 00:16:10
  TRACK 14 AUDIO
    TITLE "0:"
    INDEX 01 00:17:25
  TRACK 15 AUDIO
    TITLE "8:cjc040_5478"
    INDEX 01 00:18:07
  TRACK 16 AUDIO
    TITLE "0:"
    INDEX 01 00:21:23
  TRACK 17 AUDIO
    TITLE "9:cjc040_5479"
    INDEX 01 00:21:74
  TRACK 18 AUDIO
    TITLE "0:"
    INDEX 01 00:23:20
  TRACK 19 AUDIO
    TITLE "7:cjc040_5480"
    INDEX 01 00:25:03
  TRACK 20 AUDIO
    TITLE "0:"
    INDEX 01 00:26:36
  TRACK 21 AUDIO
    TITLE "8:cjc040_5481"
    INDEX 01 00:27:16
  TRACK 22 AUDIO
    TITLE "0:"
    INDEX 01 00:28:27
  TRACK 23 AUDIO
    TITLE "9:cjc040_5482"
    INDEX 01 00:29:07
  TRACK 24 AUDIO
    TITLE "0:"
    INDEX 01 00:30:42
  TRACK 25 AUDIO
    TITLE "7:cjc040_5483"
    INDEX 01 00:32:25
  TRACK 26 AUDIO
    TITLE "0:"
    INDEX 01 00:33:52
  TRACK 27 AUDIO
    TITLE "8:cjc040_5484"
    INDEX 01 00:34:32
  TRACK 28 AUDIO
    TITLE "0:"
    INDEX 01 00:35:23
  TRACK 29 AUDIO
    TITLE "9:cjc040_5485"
    INDEX 01 00:36:03
  TRACK 30 AUDIO
    TITLE "0:"
    INDEX 01 00:37:34
  TRACK 31 AUDIO
    TITLE "7:cjc040_5486"
    INDEX 01 00:39:17
  TRACK 32 AUDIO
    TITLE "0:"
    INDEX 01 00:40:36
  TRACK 33 AUDIO
    TITLE "8:cjc040_5487"
    INDEX 01 00:41:16
  TRACK 34 AUDIO
    TITLE "0:"
    INDEX 01 00:43:40
  TRACK 35 AUDIO
    TITLE "9:cjc040_5488"
    INDEX 01 00:44:18
  TRACK 36 AUDIO
    TITLE "0:"
    INDEX 01 00:45:37
  TRACK 37 AUDIO
    TITLE "7:cjc040_5489"
    INDEX 01 00:47:21
  TRACK 38 AUDIO
    TITLE "0:"
    INDEX 01 00:48:20
  TRACK 39 AUDIO
    TITLE "8:cjc040_5490"
    INDEX 01 00:49:04
  TRACK 40 AUDIO
    TITLE "0:"
    INDEX 01 00:52:02
  TRACK 41 AUDIO
    TITLE "9:cjc040_5491"
    INDEX 01 00:52:49
  TRACK 42 AUDIO
    TITLE "0:"
    INDEX 01 00:53:57
  TRACK 43 AUDIO
    TITLE "7:cjc040_5492"
    INDEX 01 00:55:42
  TRACK 44 AUDIO
    TITLE "0:"
    INDEX 01 00:56:67
  TRACK 45 AUDIO
    TITLE "8:cjc040_5493"
    INDEX 01 00:57:45
  TRACK 46 AUDIO
    TITLE "0:"
    INDEX 01 00:58:66
  TRACK 47 AUDIO
    TITLE "9:cjc040_5494"
    INDEX 01 00:59:43
  TRACK 48 AUDIO
    TITLE "0:"
    INDEX 01 01:00:74
  TRACK 49 AUDIO
    TITLE "7:cjc040_5495"
    INDEX 01 01:02:57
  TRACK 50 AUDIO
    TITLE "0:"
    INDEX 01 01:03:69
  TRACK 51 AUDIO
    TITLE "8:cjc040_5496"
    INDEX 01 01:04:47
  TRACK 52 AUDIO
    TITLE "0:"
    INDEX 01 01:05:50
  TRACK 53 AUDIO
    TITLE "9:cjc040_5497"
    INDEX 01 01:06:22
  TRACK 54 AUDIO
    TITLE "0:"
    INDEX 01 01:07:41
  TRACK 55 AUDIO
    TITLE "7:cjc040_5498"
    INDEX 01 01:09:26
  TRACK 56 AUDIO
    TITLE "0:"
    INDEX 01 01:10:55
  TRACK 57 AUDIO
    TITLE "8:cjc040_5499"
    INDEX 01 01:11:31
  TRACK 58 AUDIO
    TITLE "0:"
    INDEX 01 01:12:24
  TRACK 59 AUDIO
    TITLE "9:cjc040_5500"
    INDEX 01 01:13:06
  TRACK 60 AUDIO
    TITLE "0:"
    INDEX 01 01:14:35
  TRACK 61 AUDIO
    TITLE "7:cjc040_5501"
    INDEX 01 01:16:18
  TRACK 62 AUDIO
    TITLE "0:"
    INDEX 01 01:17:49
  TRACK 63 AUDIO
    TITLE "8:cjc040_5502"
    INDEX 01 01:18:27
  TRACK 64 AUDIO
    TITLE "0:"
    INDEX 01 01:20:26
  TRACK 65 AUDIO
    TITLE "9:cjc040_5503"
    INDEX 01 01:21:06
  TRACK 66 AUDIO
    TITLE "0:"
    INDEX 01 01:22:37
  TRACK 67 AUDIO
    TITLE "7:cjc040_5504"
    INDEX 01 01:24:18
  TRACK 68 AUDIO
    TITLE "0:"
    INDEX 01 01:25:39
  TRACK 69 AUDIO
    TITLE "8:cjc040_5505"
    INDEX 01 01:26:17
  TRACK 70 AUDIO
    TITLE "0:"
    INDEX 01 01:28:02
  TRACK 71 AUDIO
    TITLE "9:cjc040_5506"
    INDEX 01 01:28:57
  TRACK 72 AUDIO
    TITLE "0:"
    INDEX 01 01:30:05
  TRACK 73 AUDIO
    TITLE "7:cjc040_5507"
    INDEX 01 01:31:69
  TRACK 74 AUDIO
    TITLE "0:"
    INDEX 01 01:33:07
  TRACK 75 AUDIO
    TITLE "8:cjc040_5508"
    INDEX 01 01:33:54
  TRACK 76 AUDIO
    TITLE "0:"
    INDEX 01 01:38:55
  TRACK 77 AUDIO
    TITLE "9:cjc040_5509"
    INDEX 01 01:39:37
  TRACK 78 AUDIO
    TITLE "0:"
    INDEX 01 01:40:52
  TRACK 79 AUDIO
    TITLE "7:cjc040_5510"
    INDEX 01 01:42:31
  TRACK 80 AUDIO
    TITLE "0:"
    INDEX 01 01:43:29
  TRACK 81 AUDIO
    TITLE "8:cjc040_5511"
    INDEX 01 01:44:11
  TRACK 82 AUDIO
    TITLE "0:"
    INDEX 01 01:46:29
  TRACK 83 AUDIO
    TITLE "9:cjc040_5512"
    INDEX 01 01:47:09
  TRACK 84 AUDIO
    TITLE "0:"
    INDEX 01 01:48:14
  TRACK 85 AUDIO
    TITLE "7:cjc040_5513"
    INDEX 01 01:49:73
  TRACK 86 AUDIO
    TITLE "0:"
    INDEX 01 01:51:34
  TRACK 87 AUDIO
    TITLE "8:cjc040_5514"
    INDEX 01 01:52:08
  TRACK 88 AUDIO
    TITLE "0:"
    INDEX 01 01:53:37
  TRACK 89 AUDIO
    TITLE "9:cjc040_5515"
    INDEX 01 01:54:11
  TRACK 90 AUDIO
    TITLE "0:"
    INDEX 01 01:55:52
  TRACK 91 AUDIO
    TITLE "7:cjc040_5516"
    INDEX 01 01:57:35
  TRACK 92 AUDIO
    TITLE "0:"
    INDEX 01 01:58:56
  TRACK 93 AUDIO
    TITLE "8:cjc040_5517"
    INDEX 01 01:59:36
  TRACK 94 AUDIO
    TITLE "0:"
    INDEX 01 02:01:37
  TRACK 95 AUDIO
    TITLE "9:cjc040_5518"
    INDEX 01 02:02:18
  TRACK 96 AUDIO
    TITLE "0:"
    INDEX 01 02:03:45
  TRACK 97 AUDIO
    TITLE "7:cjc040_5519"
    INDEX 01 02:05:31
  TRACK 98 AUDIO
    TITLE "0:"
    INDEX 01 02:06:46
  TRACK 99 AUDIO
    TITLE "8:cjc040_5520"
    INDEX 01 02:07:22
  TRACK 100 AUDIO
    TITLE "0:"
    INDEX 01 02:09:32
  TRACK 101 AUDIO
    TITLE "9:cjc040_5521"
    INDEX 01 02:10:08
  TRACK 102 AUDIO
    TITLE "0:"
    INDEX 01 02:11:21
  TRACK 103 AUDIO
    TITLE "7:cjc040_5522"
    INDEX 01 02:13:03
  TRACK 104 AUDIO
    TITLE "0:"
    INDEX 01 02:14:04
  TRACK 105 AUDIO
    TITLE "8:cjc040_5523"
    INDEX 01 02:14:57
  TRACK 106 AUDIO
    TITLE "0:"
    INDEX 01 02:17:36
  TRACK 107 AUDIO
    TITLE "9:cjc040_5524"
    INDEX 01 02:18:10
  TRACK 108 AUDIO
    TITLE "0:"
    INDEX 01 02:19:13
